<svg width="24" height="25" viewBox="0 0 24 25" fill="none" xmlns="http://www.w3.org/2000/svg">
<path d="M13.0281 2.16138C14.1531 2.16438 14.7241 2.17038 15.2171 2.18438L15.4111 2.19138C15.6351 2.19938 15.8561 2.20938 16.1231 2.22138C17.1871 2.27138 17.9131 2.43938 18.5501 2.68638C19.2101 2.94038 19.7661 3.28438 20.3221 3.83938C20.8306 4.33927 21.224 4.94397 21.4751 5.61138C21.7221 6.24838 21.8901 6.97438 21.9401 8.03938C21.9521 8.30538 21.9621 8.52638 21.9701 8.75138L21.9761 8.94538C21.9911 9.43738 21.9971 10.0084 21.9991 11.1334L22.0001 11.8794V13.1894C22.0025 13.9188 21.9949 14.6482 21.9771 15.3774L21.9711 15.5714C21.9631 15.7964 21.9531 16.0174 21.9411 16.2834C21.8911 17.3484 21.7211 18.0734 21.4751 18.7114C21.2248 19.3792 20.8312 19.984 20.3221 20.4834C19.8221 20.9917 19.2174 21.3851 18.5501 21.6364C17.9131 21.8834 17.1871 22.0514 16.1231 22.1014C15.8858 22.1126 15.6485 22.1225 15.4111 22.1314L15.2171 22.1374C14.7241 22.1514 14.1531 22.1584 13.0281 22.1604L12.2821 22.1614H10.9731C10.2434 22.1639 9.51361 22.1562 8.78409 22.1384L8.59009 22.1324C8.3527 22.1234 8.11536 22.1131 7.87809 22.1014C6.81409 22.0514 6.08809 21.8834 5.45009 21.6364C4.78276 21.3857 4.17831 20.9922 3.67909 20.4834C3.17013 19.9837 2.77631 19.3789 2.52509 18.7114C2.27809 18.0744 2.11009 17.3484 2.06009 16.2834C2.04895 16.0461 2.03895 15.8088 2.03009 15.5714L2.02509 15.3774C2.00666 14.6482 1.99833 13.9188 2.00009 13.1894V11.1334C1.9973 10.404 2.00463 9.67457 2.02209 8.94538L2.02909 8.75138C2.03709 8.52638 2.04709 8.30538 2.05909 8.03938C2.10909 6.97438 2.27709 6.24938 2.52409 5.61138C2.7752 4.94328 3.16981 4.3384 3.68009 3.83938C4.17918 3.33085 4.78323 2.93736 5.45009 2.68638C6.08809 2.43938 6.81309 2.27138 7.87809 2.22138C8.14409 2.20938 8.36609 2.19938 8.59009 2.19138L8.78409 2.18538C9.51328 2.16761 10.2427 2.15994 10.9721 2.16238L13.0281 2.16138ZM12.0001 7.16138C10.674 7.16138 9.40224 7.68816 8.46455 8.62584C7.52687 9.56353 7.00009 10.8353 7.00009 12.1614C7.00009 13.4875 7.52687 14.7592 8.46455 15.6969C9.40224 16.6346 10.674 17.1614 12.0001 17.1614C13.3262 17.1614 14.5979 16.6346 15.5356 15.6969C16.4733 14.7592 17.0001 13.4875 17.0001 12.1614C17.0001 10.8353 16.4733 9.56353 15.5356 8.62584C14.5979 7.68816 13.3262 7.16138 12.0001 7.16138ZM12.0001 9.16138C12.3941 9.16131 12.7842 9.23884 13.1482 9.38955C13.5122 9.54025 13.8429 9.76117 14.1216 10.0397C14.4002 10.3182 14.6212 10.6489 14.772 11.0129C14.9229 11.3768 15.0005 11.7669 15.0006 12.1609C15.0007 12.5548 14.9231 12.945 14.7724 13.309C14.6217 13.673 14.4008 14.0037 14.1223 14.2823C13.8437 14.561 13.5131 14.782 13.1491 14.9328C12.7851 15.0836 12.3951 15.1613 12.0011 15.1614C11.2054 15.1614 10.4424 14.8453 9.87977 14.2827C9.31716 13.7201 9.00109 12.957 9.00109 12.1614C9.00109 11.3657 9.31716 10.6027 9.87977 10.0401C10.4424 9.47745 11.2054 9.16138 12.0011 9.16138M17.2511 5.66138C16.9196 5.66138 16.6016 5.79307 16.3672 6.02749C16.1328 6.26191 16.0011 6.57986 16.0011 6.91138C16.0011 7.2429 16.1328 7.56084 16.3672 7.79526C16.6016 8.02968 16.9196 8.16138 17.2511 8.16138C17.5826 8.16138 17.9006 8.02968 18.135 7.79526C18.3694 7.56084 18.5011 7.2429 18.5011 6.91138C18.5011 6.57986 18.3694 6.26191 18.135 6.02749C17.9006 5.79307 17.5826 5.66138 17.2511 5.66138Z" fill="black"/>
</svg>
