<svg width="226" height="58" viewBox="0 0 226 58" fill="none" xmlns="http://www.w3.org/2000/svg">
<path d="M0 38.7222H3.186C4.12547 37.2517 4.77901 34.4742 5.14662 30.3896C5.55509 26.305 5.75932 20.7295 5.75932 13.6631H32.1664V38.7222H36.5778V53.3656H27.9388V45.5231H8.63897V53.3656H0V38.7222ZM23.0985 38.7222V20.464H14.2758C14.1532 25.4063 13.8877 29.3888 13.4792 32.4115C13.0708 35.4341 12.4989 37.5377 11.7637 38.7222H23.0985Z" fill="#E84514"/>
<path d="M101.361 46.1971C98.052 46.1971 95.1315 45.5639 92.599 44.2977C90.1074 43.0315 88.0038 41.0504 86.2883 38.3546L92.9666 34.3108C93.9061 36.1081 95.0702 37.3947 96.459 38.1708C97.8886 38.906 99.4203 39.2736 101.054 39.2736H101.422C102.851 39.2736 103.995 38.9469 104.853 38.2933C105.751 37.5989 106.201 36.782 106.201 35.8425V35.4749C106.201 34.4129 105.772 33.5756 104.914 32.9629C104.097 32.3502 102.913 32.0439 101.361 32.0439H97.0717V26.5296H100.809C102.116 26.5296 103.158 26.2233 103.934 25.6106C104.71 24.9979 105.098 24.1605 105.098 23.0985V22.9147C105.098 22.0978 104.689 21.383 103.873 20.7703C103.096 20.1168 102.055 19.79 100.748 19.79H100.441C98.8893 19.79 97.4801 20.2189 96.2139 21.0766C94.9477 21.8936 93.9265 22.9556 93.1504 24.2627L87.2686 19.116C88.8207 17.3596 90.8018 15.9096 93.2117 14.7659C95.6625 13.5814 98.4809 12.9891 101.667 12.9891H102.157C103.709 12.9891 105.2 13.2137 106.63 13.6631C108.059 14.0715 109.305 14.6638 110.367 15.4399C111.47 16.1751 112.348 17.0533 113.002 18.0744C113.655 19.0956 113.982 20.2189 113.982 21.4443V22.1182C113.982 23.4253 113.553 24.6303 112.695 25.7331C111.878 26.836 110.755 27.7958 109.326 28.6128C111.164 29.3888 112.614 30.4509 113.676 31.7988C114.738 33.1467 115.269 34.658 115.269 36.3327V36.7616C115.269 38.0687 114.921 39.2941 114.227 40.4378C113.533 41.5814 112.593 42.5822 111.409 43.4399C110.224 44.2977 108.815 44.9717 107.181 45.4618C105.547 45.952 103.811 46.1971 101.973 46.1971H101.361Z" fill="#E84514"/>
<path d="M121.361 13.6631H128.591C128.795 14.1941 128.959 14.8476 129.081 15.6237C129.244 16.3589 129.367 17.0533 129.449 17.7068C130.797 16.2364 132.41 15.0927 134.289 14.2757C136.209 13.418 138.292 12.9891 140.538 12.9891H140.906C143.112 12.9891 145.134 13.3976 146.972 14.2145C148.851 14.9906 150.464 16.0934 151.812 17.523C153.16 18.9526 154.201 20.6478 154.937 22.6084C155.713 24.5281 156.101 26.6522 156.101 28.9804V30.2058C156.101 32.534 155.713 34.6784 154.937 36.6391C154.201 38.5588 153.16 40.2335 151.812 41.6631C150.464 43.0928 148.851 44.216 146.972 45.0329C145.134 45.809 143.112 46.1971 140.906 46.1971H140.538C138.537 46.1971 136.678 45.8703 134.963 45.2168C133.288 44.5224 131.797 43.5829 130.49 42.3984V57.777H121.361V13.6631ZM138.823 39.3962C139.967 39.3962 141.008 39.1715 141.948 38.7222C142.887 38.2321 143.704 37.5785 144.398 36.7616C145.093 35.9038 145.624 34.9031 145.991 33.7594C146.4 32.5749 146.604 31.2882 146.604 29.8994V29.2867C146.604 27.898 146.4 26.6317 145.991 25.488C145.624 24.3035 145.093 23.3028 144.398 22.4858C143.704 21.6281 142.887 20.9745 141.948 20.5252C141.008 20.0351 139.967 19.79 138.823 19.79H138.271C137.128 19.79 136.086 20.0351 135.147 20.5252C134.207 20.9745 133.39 21.6281 132.696 22.4858C132.002 23.3028 131.45 24.3035 131.042 25.488C130.674 26.6317 130.49 27.898 130.49 29.2867V29.8994C130.49 31.2882 130.674 32.5749 131.042 33.7594C131.45 34.9031 132.002 35.9038 132.696 36.7616C133.39 37.5785 134.207 38.2321 135.147 38.7222C136.086 39.1715 137.128 39.3962 138.271 39.3962H138.823Z" fill="#E84514"/>
<path d="M166.998 9.3742C165.445 9.3742 164.179 8.96574 163.199 8.14882C162.26 7.29105 161.79 6.14736 161.79 4.71774C161.79 3.32897 162.26 2.20569 163.199 1.34793C164.179 0.449309 165.445 0 166.998 0C168.591 0 169.877 0.449309 170.858 1.34793C171.879 2.20569 172.389 3.32897 172.389 4.71774C172.389 6.14736 171.879 7.29105 170.858 8.14882C169.877 8.96574 168.591 9.3742 166.998 9.3742ZM162.525 13.6631H171.654V45.5231H162.525V13.6631Z" fill="#E84514"/>
<path d="M180.612 46.1358C179.836 46.1358 179.121 46.0745 178.467 45.952C177.855 45.8294 177.222 45.6456 176.568 45.4006V38.2933C176.977 38.4976 177.385 38.6405 177.794 38.7222C178.243 38.7631 178.59 38.7835 178.835 38.7835C179.611 38.7835 180.224 38.5997 180.673 38.2321C181.122 37.8236 181.47 37.1088 181.715 36.0876C181.96 35.0665 182.123 33.6777 182.205 31.9213C182.327 30.1241 182.389 27.8163 182.389 24.9979L182.511 13.6631H207.877V45.5231H198.748V20.709H190.905L190.844 27.3261C190.803 30.9206 190.578 33.9228 190.17 36.3327C189.802 38.7426 189.19 40.6828 188.332 42.1533C187.515 43.5829 186.473 44.6041 185.207 45.2168C183.941 45.8294 182.409 46.1358 180.612 46.1358Z" fill="#E84514"/>
<path d="M220.608 9.3742C219.056 9.3742 217.79 8.96574 216.81 8.14882C215.87 7.29105 215.4 6.14736 215.4 4.71774C215.4 3.32897 215.87 2.20569 216.81 1.34793C217.79 0.449309 219.056 0 220.608 0C222.201 0 223.488 0.449309 224.468 1.34793C225.489 2.20569 226 3.32897 226 4.71774C226 6.14736 225.489 7.29105 224.468 8.14882C223.488 8.96574 222.201 9.3742 220.608 9.3742ZM216.136 13.6631H225.265V45.5231H216.136V13.6631Z" fill="#E84514"/>
<path fill-rule="evenodd" clip-rule="evenodd" d="M79.3872 24.3425C75.7105 17.4919 68.3142 13.9469 61.368 14.0493C60.8368 14.0571 58.9206 14.1128 56.4798 14.7348C61.4571 14.5114 65.1782 15.4224 67.5898 16.2625L67.6032 16.2672C68.0926 16.4384 71.2004 17.5259 71.0846 18.0569C71.0121 18.3875 69.7328 18.3168 67.1329 18.1733C65.6612 18.092 63.7663 17.9874 61.4277 17.9189C55.4498 17.7438 53.2519 18.0006 51.1727 18.5174C49.6789 18.8885 48.4125 19.3523 47.4229 19.7741C46.6729 20.5363 45.9624 21.4 45.314 22.3788C40.4586 29.7067 42.9218 37.6894 43.4166 39.1724C46.0624 47.1039 54.2583 54.5557 64.0774 53.597C71.9611 52.8265 77.9507 46.9231 80.3355 40.5267C80.7915 39.3037 83.4249 31.866 79.3872 24.3425Z" fill="#E84514"/>
<path d="M75.3147 6.30688C73.167 10.1087 71.0193 13.9114 68.8716 17.7132C68.8757 17.7306 68.9178 17.8891 69.0748 17.9543C69.1921 18.0031 69.3276 17.9824 69.4292 17.9015C71.6041 14.0518 73.7791 10.202 75.9548 6.3523C75.7409 6.33661 75.5278 6.32175 75.3147 6.30688Z" fill="#E84514"/>
<path d="M74.1707 8.67701C73.8535 8.13283 73.3976 7.39377 72.7937 6.55479C71.5381 4.81159 70.4668 3.35493 68.7065 2.44659C68.2142 2.19308 67.6112 2.02627 66.4258 1.70175C64.1509 1.08077 61.7447 0.423457 58.4777 0.167469C57.3402 0.0782859 56.1392 0.0923239 53.7354 0.122052C48.7569 0.183158 47.3939 0.53411 46.8264 1.52173C46.7042 1.73395 46.482 2.12041 46.5778 2.55972C46.89 3.9949 50.2033 4.2319 56.558 5.13281C56.558 5.13281 59.1022 5.49367 62.7227 6.08079C65.4866 6.52919 69.4144 7.29633 74.1707 8.67701Z" fill="#E84514"/>
<path d="M46.8335 5.73458C44.8684 6.00791 41.9963 7.06819 41.9864 8.2028C41.9682 10.33 52.0161 12.3969 58.5451 12.8378C59.7932 12.9212 62.8388 13.0781 66.6741 12.9584C68.878 12.8899 70.7258 12.7503 72.0632 12.6264C71.7485 12.3688 71.2974 12.0096 70.7382 11.6041C69.9774 11.0509 69.5407 10.6779 68.6124 10.059C68.6124 10.059 68.7091 10.059 65.5179 10.059C63.6612 10.059 63.098 10.0316 56.2345 9.13071C49.7361 8.82126 48.8078 7.89292 46.9511 7.27398C43.8566 5.94519 47.1623 5.68916 46.8335 5.73458Z" fill="#E84514"/>
</svg>
